<svg id="Layer_6" data-name="Layer 6" xmlns="http://www.w3.org/2000/svg" viewBox="0 0 44 44"><defs><style>.cls-1{fill:#58585a;opacity:0.2;isolation:isolate;}</style></defs><circle class="cls-1" cx="33" cy="10.99" r="1"/><circle class="cls-1" cx="33" cy="21.99" r="1"/><circle class="cls-1" cx="33" cy="32.99" r="1"/><circle class="cls-1" cx="22" cy="10.99" r="1"/><circle class="cls-1" cx="22" cy="21.99" r="1"/><circle class="cls-1" cx="22" cy="32.99" r="1"/><circle class="cls-1" cx="11" cy="10.99" r="1"/><circle class="cls-1" cx="11" cy="21.99" r="1"/><circle class="cls-1" cx="11" cy="32.99" r="1"/><path class="cls-1" d="M0,10v2a1,1,0,0,0,1-1A1,1,0,0,0,0,10Z"/><path class="cls-1" d="M0,21v2a1,1,0,0,0,1-1A1,1,0,0,0,0,21Z"/><path class="cls-1" d="M0,32v2a1,1,0,0,0,1-1A1,1,0,0,0,0,32Z"/><path class="cls-1" d="M1.5,44A1.5,1.5,0,0,0,0,42.5V44Z"/><path class="cls-1" d="M0,1.5A1.5,1.5,0,0,0,1.5,0H0Z"/><path class="cls-1" d="M42.5,0A1.51,1.51,0,0,0,44,1.5V0Z"/><path class="cls-1" d="M44,10a1,1,0,0,0,0,2Z"/><path class="cls-1" d="M44,21a1,1,0,0,0,0,2Z"/><path class="cls-1" d="M44,32a1,1,0,0,0,0,2Z"/><path class="cls-1" d="M10,0a1,1,0,0,0,1,1,1,1,0,0,0,1-1Z"/><path class="cls-1" d="M21,0a1,1,0,0,0,1,1,1,1,0,0,0,1-1Z"/><path class="cls-1" d="M32,0a1,1,0,0,0,1,1,1,1,0,0,0,1-1Z"/><path class="cls-1" d="M34,44a1,1,0,0,0-2,0Z"/><path class="cls-1" d="M23,44a1,1,0,0,0-2,0Z"/><path class="cls-1" d="M12,44a1,1,0,0,0-2,0Z"/><path class="cls-1" d="M44,44V42.5A1.5,1.5,0,0,0,42.5,44Z"/></svg>