<svg xmlns="http://www.w3.org/2000/svg" width="106.551" height="22.996" viewBox="0 0 106.551 22.996"><defs><style>.a{stroke:rgba(0,0,0,0);stroke-miterlimit:10;}</style></defs><path class="a" d="M-5130.107-117a2.921,2.921,0,0,1-1.538-.39,2.69,2.69,0,0,1-1-1.05A3.023,3.023,0,0,1-5133-119.9a2.915,2.915,0,0,1,.392-1.416l9.069-16.211a2.7,2.7,0,0,1,1.087-1.1,2.894,2.894,0,0,1,1.4-.372,2.869,2.869,0,0,1,1.416.372,2.716,2.716,0,0,1,1.074,1.1l9.082,16.211a2.755,2.755,0,0,1,.287.7,2.839,2.839,0,0,1,.091.714,3.023,3.023,0,0,1-.354,1.453,2.694,2.694,0,0,1-1,1.05,2.891,2.891,0,0,1-1.525.39Zm97.286-3.673-.22-1.541h-4.1l-.54,1.541h-5.239l6.279-14h5.74l3.32,14Zm-3.08-5.041h2.32l-.66-4.64Zm-14.2,5.041,1.02-9.7h-3.38l.46-4.3h11.859l-.46,4.3h-3.379l-1.021,9.7Zm-12.021,0,1.48-14h5.1l-1.02,9.7h4.34l-.46,4.3Zm-11.58,0,1.48-14h9.48l-.4,3.66h-4.38l-.16,1.661h4.38l-.38,3.46h-4.38l-.16,1.56h4.38l-.38,3.66Zm-14.96,0,1.48-14h6.32c4.24,0,7.02,2.94,6.6,7a7.853,7.853,0,0,1-8.08,7Zm5.52-4.06h.76a3.05,3.05,0,0,0,2.82-2.94c.18-1.68-.76-2.94-2.2-2.94h-.76Z" transform="translate(5133.5 139.5)"/></svg>